<svg width="834" height="894" viewBox="0 0 834 894" fill="none" xmlns="http://www.w3.org/2000/svg">
<g clip-path="url(#clip0_394_129716)">
<path d="M0 0H780C809.823 0 834 24.1766 834 54V840C834 869.823 809.823 894 780 894H0V0Z" fill="#F3F3F3"/>
<circle opacity="0.34" cx="562" cy="597" r="69" fill="white"/>
<circle opacity="0.19" cx="557" cy="600" r="39.5" stroke="white" stroke-width="33"/>
<circle opacity="0.34" cx="287" cy="381" r="89.5" stroke="white" stroke-width="59"/>
<rect opacity="0.46" x="269" y="313" width="300" height="300" rx="21" fill="white"/>
<path d="M269 334C269 322.402 278.402 313 290 313H423V613H290C278.402 613 269 603.598 269 592V334Z" fill="white"/>
<rect x="290" y="334" width="76.7027" height="76.7027" rx="21" fill="#1890FF"/>
<rect x="380.648" y="334" width="76.7027" height="76.7027" rx="21" fill="#EB5A3B"/>
<rect x="471.297" y="334" width="76.7027" height="76.7027" rx="21" fill="#3D2B08"/>
<rect x="290" y="515.297" width="76.7027" height="76.7027" rx="21" fill="#157831"/>
<rect x="290" y="424.649" width="76.7027" height="76.7027" rx="21" fill="#0045AC"/>
<rect x="471.297" y="515.297" width="76.7027" height="76.7027" rx="21" fill="#FFAB6E"/>
<rect x="471.297" y="424.649" width="76.7027" height="76.7027" rx="21" fill="#6E40CE"/>
<rect x="380.648" y="515.297" width="76.7027" height="76.7027" rx="21" fill="#FF4996"/>
<rect x="380.648" y="424.649" width="76.7027" height="76.7027" rx="21" fill="#17C182"/>
<path d="M422.145 455.21C420.787 455.188 419.475 455.708 418.5 456.653C417.75 455.953 416.809 455.49 415.796 455.323C414.783 455.156 413.744 455.292 412.809 455.715C411.873 456.137 411.084 456.827 410.539 457.697C409.995 458.567 409.721 459.579 409.75 460.605C409.75 465.353 416.858 470.428 417.669 470.989C417.913 471.159 418.203 471.249 418.5 471.249C418.797 471.249 419.087 471.159 419.331 470.989C420.142 470.428 427.249 465.353 427.249 460.605C427.285 459.214 426.768 457.864 425.812 456.853C424.855 455.842 423.537 455.251 422.145 455.21ZM418.5 467.987C415.961 466.047 412.667 462.795 412.667 460.605C412.556 457.68 416.915 457.105 417.041 460.246V461.043C417.041 461.429 417.195 461.8 417.469 462.074C417.742 462.347 418.113 462.501 418.5 462.501C418.886 462.501 419.257 462.347 419.531 462.074C419.804 461.8 419.958 461.429 419.958 461.043V460.246C420.085 457.108 424.444 457.68 424.333 460.605C424.333 462.793 421.039 466.047 418.5 467.987ZM419.719 445.043C417.219 444.868 414.711 445.232 412.364 446.111C410.017 446.989 407.886 448.362 406.116 450.135C404.345 451.908 402.976 454.041 402.101 456.39C401.226 458.738 400.866 461.247 401.044 463.746C401.686 473.012 409.87 480 420.079 480H428.707C430.641 479.998 432.494 479.229 433.861 477.862C435.227 476.495 435.996 474.642 435.999 472.709V462.997C436.053 458.502 434.405 454.152 431.385 450.822C428.365 447.492 424.198 445.427 419.719 445.043ZM433.082 472.709C433.082 473.869 432.621 474.982 431.801 475.802C430.98 476.623 429.868 477.083 428.707 477.083H420.079C411.28 477.083 404.501 471.396 403.954 463.545C403.804 461.461 404.104 459.369 404.833 457.412C405.562 455.454 406.703 453.675 408.179 452.197C409.655 450.718 411.432 449.574 413.389 448.842C415.345 448.11 417.436 447.807 419.521 447.953C423.263 448.284 426.742 450.019 429.257 452.81C431.773 455.601 433.14 459.24 433.082 462.997V472.709Z" fill="white"/>
<rect opacity="0.3" x="299" y="347" width="27" height="51" rx="8" fill="white"/>
<rect opacity="0.3" x="512" y="347" width="27" height="51" rx="8" fill="white"/>
<rect opacity="0.3" x="512" y="529" width="27" height="51" rx="8" fill="white"/>
<rect opacity="0.3" x="332" y="347" width="25" height="23" rx="8" fill="white"/>
<rect opacity="0.3" x="332" y="375" width="25" height="23" rx="8" fill="white"/>
<rect opacity="0.3" x="332" y="528" width="25" height="23" rx="8" fill="white"/>
<rect opacity="0.3" x="332" y="557" width="25" height="23" rx="8" fill="white"/>
<rect opacity="0.3" x="481" y="529" width="25" height="23" rx="8" fill="white"/>
<rect opacity="0.3" x="481" y="375" width="25" height="23" rx="8" fill="white"/>
<rect opacity="0.3" x="481" y="557" width="25" height="23" rx="8" fill="white"/>
<rect opacity="0.3" x="300" y="528" width="25" height="23" rx="8" fill="white"/>
<rect opacity="0.3" x="300" y="557" width="25" height="23" rx="8" fill="white"/>
<path fill-rule="evenodd" clip-rule="evenodd" d="M287.717 289.188L422.401 238.238C423.26 237.912 424.21 237.923 425.062 238.266L489 264.031V250C489 246.686 491.687 244 495 244H510C513.314 244 516 246.686 516 250V273C516 273.627 515.904 274.232 515.725 274.8L551.5 289.217C555.232 290.72 554.156 296.269 550.133 296.269H289.011C284.944 296.269 283.913 290.627 287.717 289.188Z" fill="white"/>
</g>
<defs>
<clipPath id="clip0_394_129716">
<path d="M0 0H780C809.823 0 834 24.1766 834 54V840C834 869.823 809.823 894 780 894H0V0Z" fill="white"/>
</clipPath>
</defs>
</svg>
